<?xml version="1.0" encoding="utf-8"?>
<!-- Generator: Adobe Illustrator 26.3.1, SVG Export Plug-In . SVG Version: 6.00 Build 0)  -->
<svg version="1.1" id="Layer_1" xmlns="http://www.w3.org/2000/svg" xmlns:xlink="http://www.w3.org/1999/xlink" x="0px" y="0px"
	 viewBox="0 0 107 33" style="enable-background:new 0 0 107 33;" xml:space="preserve">
<style type="text/css">
	.st0{fill:#FFFFFF;}
	.st1{fill:#FF4C60;}
</style>
<g>
	<path class="st0" d="M29.2,5.8c0.1,0.3,0.2,0.6,0.2,0.8c0,0.3-0.1,0.6-0.2,0.9C29.1,7.8,29,8,28.7,8.3c-0.2,0.2-0.5,0.4-0.8,0.5
		S27.4,8.9,27.1,9c-0.3,0-0.6,0-0.9-0.1c-0.3-0.1-0.5-0.3-0.7-0.5C24.7,7.6,23.9,7,23,6.7c-0.9-0.3-1.9-0.5-2.9-0.5
		c-1,0-2,0.2-2.9,0.6c-0.9,0.4-1.7,0.9-2.4,1.6c-0.7,0.7-1.2,1.5-1.6,2.4c-0.4,0.9-0.6,1.9-0.6,2.9c0,1,0.2,2,0.6,2.9
		c0.4,0.9,0.9,1.7,1.5,2.4c0.7,0.7,1.4,1.2,2.3,1.6s1.9,0.6,2.9,0.6c1,0,2-0.1,2.9-0.5s1.7-0.9,2.5-1.7c0.2-0.2,0.5-0.4,0.7-0.5
		c0.3-0.1,0.6-0.2,0.9-0.2c0.3,0,0.6,0.1,0.9,0.2c0.3,0.1,0.5,0.3,0.7,0.5c0.2,0.2,0.4,0.5,0.5,0.8c0.1,0.3,0.2,0.6,0.2,0.9
		c0,0.3-0.1,0.6-0.2,0.9s-0.3,0.5-0.5,0.7c-1.2,1.2-2.6,2.1-4.1,2.7s-3,0.9-4.6,0.9c-1.1,0-2.2-0.1-3.2-0.4s-2-0.7-2.9-1.2
		c-0.9-0.5-1.7-1.2-2.4-1.9s-1.4-1.6-1.9-2.5c-0.5-0.9-0.9-1.9-1.2-2.9c-0.3-1-0.4-2.1-0.4-3.2c0-1.1,0.1-2.1,0.4-3.1
		c0.3-1,0.7-2,1.2-2.9s1.1-1.7,1.8-2.5c0.7-0.8,1.5-1.4,2.4-2c0.9-0.5,1.9-1,2.9-1.3c1.1-0.3,2.2-0.5,3.3-0.5c1.6,0,3.1,0.3,4.6,0.9
		c1.5,0.6,2.8,1.5,4,2.7C29,5.3,29.1,5.5,29.2,5.8z"/>
	<path class="st0" d="M32.1,9.3c0.1-0.3,0.3-0.5,0.5-0.7s0.4-0.4,0.7-0.5c0.3-0.1,0.6-0.2,0.9-0.2c0.3,0,0.6,0.1,0.9,0.2
		c0.3,0.1,0.5,0.3,0.7,0.5s0.4,0.4,0.5,0.7c0.1,0.3,0.2,0.6,0.2,0.9v6.6c0,0.6,0.1,1.1,0.2,1.6c0.1,0.5,0.4,0.9,0.7,1.3
		s0.6,0.7,1.1,0.9c0.4,0.2,0.9,0.3,1.4,0.3c0.5,0,1-0.1,1.4-0.3c0.4-0.2,0.8-0.5,1.1-0.8c0.3-0.3,0.6-0.8,0.7-1.2
		c0.2-0.5,0.3-1,0.3-1.6v-6.8c0-0.3,0.1-0.6,0.2-0.9s0.3-0.5,0.5-0.7c0.2-0.2,0.4-0.4,0.7-0.5C45.1,8,45.4,8,45.7,8
		C46,8,46.3,8,46.6,8.2c0.3,0.1,0.5,0.3,0.7,0.5c0.2,0.2,0.4,0.5,0.5,0.7C47.9,9.7,48,10,48,10.3v13c0,0.3-0.1,0.6-0.2,0.9
		c-0.1,0.3-0.3,0.5-0.5,0.7c-0.2,0.2-0.5,0.4-0.7,0.5c-0.3,0.1-0.6,0.2-0.9,0.2c-0.5,0-1-0.2-1.4-0.5c-0.4-0.3-0.7-0.7-0.8-1.2
		c-0.6,0.5-1.3,0.9-2,1.2c-0.7,0.3-1.4,0.4-2.2,0.4c-1.1,0-2.1-0.2-3-0.7s-1.7-1.1-2.4-1.9c-0.7-0.8-1.2-1.7-1.5-2.8
		c-0.4-1.1-0.5-2.2-0.5-3.4v-6.7C31.9,9.9,31.9,9.6,32.1,9.3z"/>
	<path class="st0" d="M58.4,25.5c-0.7-0.2-1.4-0.5-2-0.8v4.9c0,0.3-0.1,0.6-0.2,0.9s-0.3,0.5-0.5,0.7c-0.2,0.2-0.5,0.4-0.7,0.5
		s-0.6,0.2-0.9,0.2c-0.3,0-0.6-0.1-0.9-0.2s-0.5-0.3-0.7-0.5c-0.2-0.2-0.4-0.4-0.5-0.7s-0.2-0.6-0.2-0.9V10.2c0-0.3,0.1-0.6,0.2-0.9
		s0.3-0.5,0.5-0.7c0.2-0.2,0.5-0.4,0.7-0.5S53.7,8,54,8c0.4,0,0.9,0.1,1.2,0.3c0.4,0.2,0.7,0.5,0.8,0.9c0.7-0.4,1.4-0.7,2.1-0.9
		S59.8,8,60.6,8c1.2,0,2.4,0.2,3.5,0.7c1.1,0.5,2,1.1,2.8,1.9c0.8,0.8,1.4,1.8,1.9,2.8c0.5,1.1,0.7,2.2,0.7,3.5
		c0,1.2-0.2,2.4-0.7,3.5c-0.5,1.1-1.1,2-1.9,2.8c-0.8,0.8-1.7,1.4-2.8,1.9c-1.1,0.5-2.2,0.7-3.5,0.7C59.8,25.7,59.1,25.6,58.4,25.5z
		 M56.7,18.5c0.2,0.5,0.5,1,0.9,1.4s0.8,0.7,1.4,0.9c0.5,0.2,1.1,0.3,1.7,0.3c0.6,0,1.2-0.1,1.7-0.3c0.5-0.2,1-0.5,1.3-0.9
		c0.4-0.4,0.7-0.8,0.9-1.4c0.2-0.5,0.3-1.1,0.3-1.7c0-0.6-0.1-1.2-0.3-1.7c-0.2-0.5-0.5-1-0.9-1.3c-0.4-0.4-0.8-0.7-1.3-0.9
		c-0.5-0.2-1.1-0.3-1.7-0.3c-0.6,0-1.1,0.1-1.7,0.3c-0.5,0.2-1,0.5-1.4,0.9s-0.7,0.8-0.9,1.3c-0.2,0.5-0.3,1.1-0.3,1.7
		C56.4,17.4,56.5,18,56.7,18.5z"/>
	<path class="st0" d="M75.3,17.9c-0.7-0.3-1.4-0.7-2-1.1c-0.6-0.4-1-0.9-1.4-1.5c-0.3-0.6-0.5-1.2-0.5-2c0-0.8,0.2-1.5,0.5-2.2
		s0.8-1.2,1.4-1.7c0.6-0.5,1.3-0.8,2-1.1c0.8-0.3,1.6-0.4,2.4-0.4c0.5,0,1.1,0,1.6,0.1s1.1,0.3,1.6,0.5s1,0.5,1.4,0.8
		c0.4,0.3,0.7,0.7,0.9,1.1c0.2,0.4,0.3,0.9,0.2,1.2s-0.2,0.7-0.5,1c-0.3,0.3-0.6,0.5-1,0.6c-0.4,0.1-0.8,0.1-1.2-0.1
		c-0.3-0.1-0.5-0.2-0.7-0.4s-0.4-0.3-0.6-0.4c-0.2-0.1-0.4-0.2-0.6-0.3C78.6,12,78.4,12,78.1,12c-0.7,0-1.2,0.1-1.5,0.3
		c-0.3,0.2-0.5,0.5-0.5,0.9c0,0.2,0.1,0.4,0.2,0.6c0.1,0.2,0.3,0.3,0.6,0.4c0.2,0.1,0.5,0.3,0.9,0.4c0.3,0.1,0.7,0.3,1.2,0.4
		c0.7,0.2,1.4,0.5,2,0.8c0.6,0.3,1.2,0.6,1.7,1s0.9,0.9,1.2,1.5c0.3,0.6,0.4,1.3,0.4,2.1c0,0.8-0.2,1.5-0.5,2.1
		c-0.3,0.7-0.8,1.2-1.3,1.7c-0.6,0.5-1.2,0.9-2,1.2c-0.8,0.3-1.7,0.4-2.6,0.4c-0.6,0-1.2-0.1-1.8-0.2s-1.2-0.3-1.8-0.6
		c-0.6-0.3-1.2-0.6-1.7-1c-0.5-0.4-0.9-0.9-1.2-1.5c-0.2-0.4-0.4-0.9-0.4-1.3c0-0.4,0.1-0.7,0.3-1c0.2-0.3,0.4-0.5,0.7-0.7
		c0.3-0.2,0.6-0.3,1-0.3s0.7,0.1,1.1,0.2c0.4,0.2,0.7,0.4,1.1,0.8c0.2,0.2,0.4,0.4,0.6,0.6c0.2,0.2,0.4,0.3,0.6,0.4
		c0.2,0.1,0.4,0.2,0.7,0.3c0.2,0.1,0.5,0.1,0.8,0.1c0.2,0,0.5,0,0.7-0.1c0.2,0,0.4-0.1,0.6-0.2c0.2-0.1,0.3-0.2,0.4-0.4
		c0.1-0.1,0.2-0.3,0.2-0.5c0-0.3-0.1-0.5-0.3-0.7s-0.4-0.3-0.6-0.5s-0.5-0.2-0.7-0.3c-0.2-0.1-0.4-0.1-0.6-0.2
		C76.8,18.5,76,18.2,75.3,17.9z"/>
	<path class="st1" d="M87.1,22c0.1-0.3,0.3-0.6,0.6-0.8c0.2-0.2,0.5-0.4,0.8-0.6c0.3-0.1,0.7-0.2,1-0.2c0.4,0,0.7,0.1,1,0.2
		c0.3,0.1,0.6,0.3,0.8,0.6c0.2,0.2,0.4,0.5,0.6,0.8c0.1,0.3,0.2,0.7,0.2,1s-0.1,0.7-0.2,1c-0.1,0.3-0.3,0.6-0.6,0.8
		c-0.2,0.2-0.5,0.4-0.8,0.6c-0.3,0.1-0.7,0.2-1,0.2c-0.4,0-0.7-0.1-1-0.2c-0.3-0.1-0.6-0.3-0.8-0.6c-0.2-0.2-0.4-0.5-0.6-0.8
		s-0.2-0.7-0.2-1S86.9,22.3,87.1,22z"/>
</g>
</svg>
